<svg width="11" height="11" viewBox="0 0 11 11" fill="none" xmlns="http://www.w3.org/2000/svg">
<path d="M10.4987 0.503103C10.3039 0.307424 9.9873 0.306748 9.79162 0.501592C9.59594 0.696436 9.59526 1.01302 9.79011 1.2087L10.4987 0.503103ZM10.2185 2.58007L10.5728 2.93287L10.5891 2.9165L10.6038 2.89871L10.2185 2.58007ZM9.79125 1.20984C9.98609 1.40552 10.3027 1.4062 10.4984 1.21136C10.694 1.01651 10.6947 0.699929 10.4999 0.50425L9.79125 1.20984ZM8.42874 0.782667L8.10848 0.398695L8.09074 0.413496L8.07443 0.42987L8.42874 0.782667ZM7.40436 1.10281C7.20952 1.29849 7.21019 1.61507 7.40587 1.80992C7.60155 2.00476 7.91813 2.00408 8.11298 1.8084L7.40436 1.10281ZM9.1941 2.90021C8.99925 3.09589 8.99993 3.41247 9.19561 3.60732C9.39129 3.80216 9.70787 3.80149 9.90272 3.60581L9.1941 2.90021ZM1.20977 1.2087C1.40462 1.01302 1.40394 0.696436 1.20826 0.501592C1.01258 0.306748 0.696 0.307424 0.501156 0.503103L1.20977 1.2087ZM0.781401 2.58007L0.396087 2.89871L0.410801 2.91651L0.427093 2.93287L0.781401 2.58007ZM0.500013 0.50425C0.305169 0.699929 0.305845 1.01651 0.501524 1.21136C0.697203 1.4062 1.01378 1.40552 1.20863 1.20984L0.500013 0.50425ZM2.57114 0.782667L2.92545 0.42987L2.90914 0.413496L2.8914 0.398695L2.57114 0.782667ZM2.8869 1.8084C3.08174 2.00408 3.39833 2.00476 3.594 1.80992C3.78968 1.61507 3.79036 1.29849 3.59552 1.10281L2.8869 1.8084ZM1.09716 3.60581C1.29201 3.80149 1.60859 3.80216 1.80427 3.60732C1.99995 3.41247 2.00062 3.09589 1.80578 2.90021L1.09716 3.60581ZM8.34294 10.7492C8.48057 10.9886 8.78622 11.0711 9.02562 10.9335C9.26502 10.7958 9.34752 10.4902 9.20989 10.2508L8.34294 10.7492ZM1.86614 10.2508C1.72852 10.4902 1.81102 10.7958 2.05042 10.9335C2.28982 11.0711 2.59546 10.9886 2.73309 10.7492L1.86614 10.2508ZM5.57505 5.44021H5.07505V5.94021H5.57505V5.44021ZM6.07505 2.62067C6.07505 2.34453 5.85119 2.12067 5.57505 2.12067C5.29891 2.12067 5.07505 2.34453 5.07505 2.62067H6.07505ZM7.13478 5.94021C7.41092 5.94021 7.63478 5.71635 7.63478 5.44021C7.63478 5.16406 7.41092 4.94021 7.13478 4.94021V5.94021ZM9.79011 1.2087C9.79032 1.20891 9.79039 1.20898 9.79043 1.20903L10.4995 0.503922C10.4992 0.503587 10.4989 0.503271 10.4987 0.503103L9.79011 1.2087ZM9.79043 1.20903C10.0668 1.48692 10.0582 1.98933 9.83316 2.26143L10.6038 2.89871C11.1238 2.26989 11.1741 1.18236 10.4995 0.503922L9.79043 1.20903ZM10.4999 0.50425C10.4998 0.504158 10.4994 0.503783 10.4991 0.503433L9.79092 1.20952L9.79125 1.20984L10.4999 0.50425ZM10.4991 0.503433C9.82236 -0.175219 8.73601 -0.124708 8.10848 0.398695L8.749 1.16664C9.01854 0.941826 9.51536 0.933157 9.79092 1.20952L10.4991 0.503433ZM8.07443 0.42987L7.40436 1.10281L8.11298 1.8084L8.78305 1.13546L8.07443 0.42987ZM9.86417 2.22727L9.1941 2.90021L9.90272 3.60581L10.5728 2.93287L9.86417 2.22727ZM0.501156 0.503103C0.500875 0.503385 0.500603 0.503658 0.500341 0.503922L1.20944 1.20903C1.20956 1.20891 1.20967 1.2088 1.20977 1.2087L0.501156 0.503103ZM0.500341 0.503922C-0.174269 1.18236 -0.123927 2.26989 0.396087 2.89871L1.16671 2.26143C0.941702 1.98933 0.933117 1.48692 1.20944 1.20903L0.500341 0.503922ZM1.20863 1.20984C1.20873 1.20974 1.20884 1.20963 1.20896 1.20952L0.500828 0.503433C0.500566 0.503696 0.500294 0.503969 0.500013 0.50425L1.20863 1.20984ZM1.20896 1.20952C1.48452 0.933157 1.98134 0.941826 2.25088 1.16664L2.8914 0.398695C2.26386 -0.124708 1.17752 -0.175219 0.500828 0.503433L1.20896 1.20952ZM2.21683 1.13546L2.8869 1.8084L3.59552 1.10281L2.92545 0.42987L2.21683 1.13546ZM0.427093 2.93287L1.09716 3.60581L1.80578 2.90021L1.13571 2.22727L0.427093 2.93287ZM7.3252 8.97887L8.34294 10.7492L9.20989 10.2508L8.19214 8.48047L7.3252 8.97887ZM2.88389 8.48047L1.86614 10.2508L2.73309 10.7492L3.75084 8.97887L2.88389 8.48047ZM6.07505 5.44021V2.62067H5.07505V5.44021H6.07505ZM5.57505 5.94021H7.13478V4.94021H5.57505V5.94021ZM9.44229 5.20525C9.44229 7.31016 7.74377 9.01287 5.65304 9.01287V10.0129C8.30008 10.0129 10.4423 7.85841 10.4423 5.20525H9.44229ZM5.65304 9.01287C3.5623 9.01287 1.86378 7.31016 1.86378 5.20525H0.863781C0.863781 7.85841 3.00599 10.0129 5.65304 10.0129V9.01287ZM1.86378 5.20525C1.86378 3.10033 3.5623 1.39762 5.65304 1.39762V0.397619C3.00599 0.397619 0.863781 2.55208 0.863781 5.20525H1.86378ZM5.65304 1.39762C7.74377 1.39762 9.44229 3.10033 9.44229 5.20525H10.4423C10.4423 2.55208 8.30008 0.397619 5.65304 0.397619V1.39762Z" fill="#2260FF"/>
</svg>
