<svg width="13" height="12" viewBox="0 0 13 12" fill="none" xmlns="http://www.w3.org/2000/svg">
<path d="M2.64925 3.96362C1.37593 4.59612 0.5 5.91639 0.5 7.44265C0.5 8.31306 0.784874 9.11647 1.26587 9.76353L0.630156 11.3197C0.599774 11.4219 0.689051 11.5195 0.792061 11.4967L2.52053 10.8547C3.0649 11.1513 3.68829 11.3197 4.35075 11.3197C5.22569 11.3197 6.03248 11.0259 6.6791 10.531M12.5 5.45902C12.5 6.57232 12.1356 7.59993 11.5204 8.42756L12.3335 10.418C12.3724 10.5487 12.2582 10.6735 12.1264 10.6443L9.91561 9.82319C9.21931 10.2026 8.42195 10.418 7.57463 10.418C4.85442 10.418 2.64925 8.19781 2.64925 5.45902C2.64925 2.72023 4.85442 0.5 7.57463 0.5C10.2948 0.5 12.5 2.72023 12.5 5.45902Z" stroke="white" stroke-linecap="round" stroke-linejoin="round"/>
</svg>
