<svg width="26" height="26" viewBox="0 0 26 26" fill="none" xmlns="http://www.w3.org/2000/svg">
<path d="M22.2531 19.7475C23.7271 17.7903 24.6 15.3602 24.6 12.7274C24.6 6.25052 19.317 1 12.8 1C6.28304 1 1 6.25052 1 12.7274C1 19.2042 6.28304 24.4547 12.8 24.4547C14.83 24.4547 16.7403 23.9453 18.4084 23.048L23.705 24.9899C24.0207 25.0589 24.2943 24.7638 24.2012 24.4547L22.2531 19.7475Z" stroke="#2260FF" stroke-width="2" stroke-linecap="round" stroke-linejoin="round"/>
<path d="M11.8139 6.85341L13.0887 9.01847C13.2746 9.33407 13.1355 9.53903 12.9152 9.74792C12.6948 9.95681 11.4362 10.5851 11.1144 10.7674C10.7925 10.9496 13.7216 16.1063 14.124 15.8785C14.5263 15.6508 15.6301 14.9417 15.9248 14.8591C16.2194 14.7765 16.47 14.7608 16.6558 15.0764L17.9307 17.2415C18.0742 17.4853 17.9874 17.7985 17.7366 17.9362C13.9619 20.0094 12.2195 20.4328 11.1032 18.5L7.53614 12.442C6.38718 10.5277 7.38481 8.83952 11.1033 6.67086C11.3503 6.52681 11.6703 6.60965 11.8139 6.85341Z" stroke="#2260FF" stroke-width="2" stroke-linecap="round"/>
</svg>
