<svg width="16" height="19" viewBox="0 0 16 19" fill="none" xmlns="http://www.w3.org/2000/svg">
<path d="M6.9551 11.0135C7.12088 10.7926 7.07625 10.4792 6.85541 10.3134C6.63457 10.1476 6.32115 10.1923 6.15536 10.4131L6.9551 11.0135ZM4.61417 12.4662C4.44839 12.687 4.49302 13.0004 4.71386 13.1662C4.9347 13.332 5.24812 13.2874 5.4139 13.0665L4.61417 12.4662ZM3.69585 11.0939C3.47877 10.9232 3.16443 10.9608 2.99375 11.1779C2.82307 11.395 2.86069 11.7093 3.07777 11.88L3.69585 11.0939ZM6.45645 14.5365C6.67353 14.7071 6.98787 14.6695 7.15854 14.4524C7.32922 14.2354 7.2916 13.921 7.07452 13.7503L6.45645 14.5365ZM2.88736 17.9676L3.28722 18.2677V18.2677L2.88736 17.9676ZM0.775683 16.3073L0.375815 16.0071L0.775683 16.3073ZM1.02036 18.218L0.711324 18.611L1.02036 18.218ZM13.9585 9.2808C12.2699 11.5301 9.12785 11.9484 6.93584 10.2249L6.31776 11.011C8.95537 13.0848 12.7364 12.5745 14.7582 9.88115L13.9585 9.2808ZM6.93584 10.2249C4.73682 8.49594 4.31973 5.26177 6.0134 3.00562L5.21367 2.40527C3.19693 5.09178 3.68716 8.94273 6.31776 11.011L6.93584 10.2249ZM6.0134 3.00562C7.70194 0.756298 10.844 0.338071 13.036 2.06152L13.6541 1.27541C11.0165 -0.798396 7.23553 -0.288078 5.21367 2.40527L6.0134 3.00562ZM13.036 2.06152C15.2351 3.79049 15.6522 7.02465 13.9585 9.2808L14.7582 9.88115C16.775 7.19464 16.2847 3.34369 13.6541 1.27541L13.036 2.06152ZM6.15536 10.4131L4.61417 12.4662L5.4139 13.0665L6.9551 11.0135L6.15536 10.4131ZM3.07777 11.88L6.45645 14.5365L7.07452 13.7503L3.69585 11.0939L3.07777 11.88ZM5.73211 13.3452L2.48749 17.6674L3.28722 18.2677L6.53185 13.9455L5.73211 13.3452ZM1.17555 16.6074L4.42018 12.2852L3.62044 11.6849L0.375815 16.0071L1.17555 16.6074ZM1.3294 17.8249C0.962069 17.5361 0.889096 16.989 1.17555 16.6074L0.375815 16.0071C-0.233709 16.819 -0.0875888 17.9829 0.711324 18.611L1.3294 17.8249ZM2.48749 17.6674C2.20616 18.0421 1.68972 18.1082 1.3294 17.8249L0.711324 18.611C1.51725 19.2447 2.67257 19.0865 3.28722 18.2677L2.48749 17.6674Z" fill="#2260FF"/>
</svg>
